<svg width="14" height="18" viewBox="0 0 14 18" fill="none" xmlns="http://www.w3.org/2000/svg">
<path d="M13.5751 6.95832C13.5059 6.82089 13.3999 6.70532 13.269 6.62442C13.1381 6.54352 12.9874 6.50045 12.8335 6.49998H8.6668V1.49999C8.67574 1.31722 8.62428 1.13659 8.52036 0.985985C8.41644 0.835376 8.26584 0.723158 8.0918 0.666652C7.92448 0.611604 7.74403 0.610986 7.57635 0.664885C7.40866 0.718784 7.26237 0.824428 7.15846 0.966652L0.491795 10.1333C0.408267 10.254 0.358111 10.3947 0.346404 10.541C0.334697 10.6874 0.361855 10.8342 0.425129 10.9667C0.483397 11.1181 0.584619 11.2493 0.71637 11.344C0.848121 11.4387 1.00467 11.493 1.1668 11.5H5.33346V16.5C5.33359 16.6757 5.38927 16.8469 5.49254 16.9891C5.59581 17.1313 5.74139 17.2372 5.90846 17.2917C5.99219 17.3176 6.07915 17.3316 6.1668 17.3333C6.29828 17.3337 6.42799 17.3029 6.5453 17.2435C6.66262 17.1841 6.76422 17.0978 6.8418 16.9917L13.5085 7.82499C13.5982 7.70065 13.652 7.55395 13.6637 7.40103C13.6755 7.24812 13.6448 7.09492 13.5751 6.95832ZM7.00013 13.9333V10.6667C7.00013 10.4456 6.91233 10.2337 6.75605 10.0774C6.59977 9.92112 6.38781 9.83332 6.1668 9.83332H2.83346L7.00013 4.06665V7.33332C7.00013 7.55433 7.08793 7.76629 7.24421 7.92257C7.40049 8.07885 7.61245 8.16665 7.83346 8.16665H11.1668L7.00013 13.9333Z" fill="#232427"/>
</svg>
