<svg width="11" height="13" viewBox="0 0 11 13" fill="none" xmlns="http://www.w3.org/2000/svg">
<path d="M5.8168 12.4796L5.81659 12.4793L5.80875 12.486C5.72271 12.5596 5.61322 12.6 5.5 12.6C5.38678 12.6 5.27729 12.5596 5.19125 12.486L5.19095 12.4857C5.09235 12.4003 3.95597 11.4155 2.84333 10.0355C1.72063 8.64307 0.65 6.88174 0.65 5.25C0.65 3.9637 1.16098 2.73008 2.07053 1.82053C2.98008 0.910981 4.2137 0.4 5.5 0.4C6.7863 0.4 8.01992 0.910981 8.92947 1.82053C9.83902 2.73008 10.35 3.9637 10.35 5.25C10.35 6.88205 9.28682 8.64353 8.16822 10.0357C7.05383 11.4227 5.91438 12.4071 5.8168 12.4796ZM5.39732 11.3906L5.49974 11.4868L5.6024 11.3909C6.27316 10.7642 7.21814 9.7706 7.99673 8.66858C8.77097 7.57273 9.4 6.34306 9.4 5.25C9.4 4.21566 8.98911 3.22368 8.25772 2.49228C7.52633 1.76089 6.53434 1.35 5.5 1.35C4.46566 1.35 3.47368 1.76089 2.74228 2.49228C2.01089 3.22368 1.6 4.21566 1.6 5.25C1.6 6.3431 2.22907 7.57123 3.0033 8.66628C3.78189 9.7675 4.72681 10.761 5.39732 11.3906ZM4.19441 3.29605C4.58087 3.03783 5.03521 2.9 5.5 2.9C6.12326 2.9 6.72099 3.14759 7.1617 3.5883C7.60241 4.02901 7.85 4.62674 7.85 5.25C7.85 5.71479 7.71217 6.16913 7.45395 6.55559C7.19573 6.94205 6.82871 7.24325 6.39931 7.42112C5.9699 7.59898 5.49739 7.64552 5.04154 7.55485C4.58568 7.46417 4.16695 7.24035 3.8383 6.9117C3.50965 6.58305 3.28583 6.16432 3.19515 5.70846C3.10448 5.25261 3.15102 4.7801 3.32888 4.35069C3.50675 3.92129 3.80795 3.55427 4.19441 3.29605ZM4.7222 6.41406C4.95243 6.56789 5.22311 6.65 5.5 6.65C5.8713 6.65 6.2274 6.5025 6.48995 6.23995C6.7525 5.9774 6.9 5.6213 6.9 5.25C6.9 4.97311 6.81789 4.70243 6.66406 4.4722C6.51022 4.24197 6.29157 4.06253 6.03576 3.95657C5.77994 3.85061 5.49845 3.82288 5.22687 3.8769C4.9553 3.93092 4.70584 4.06426 4.51005 4.26005C4.31426 4.45584 4.18092 4.7053 4.1269 4.97687C4.07288 5.24845 4.10061 5.52994 4.20657 5.78576C4.31253 6.04157 4.49197 6.26022 4.7222 6.41406Z" fill="black" stroke="white" stroke-width="0.3"/>
</svg>
